<?xml version="1.0" encoding="UTF-8"?>
<svg id="Layer_2" data-name="Layer 2" xmlns="http://www.w3.org/2000/svg" viewBox="0 0 127.32 127.32">
  <defs>
    <style>
      .cls-1 {
        fill: #d1da44;
      }

      .cls-2 {
        fill: #161a31;
      }

      .cls-3 {
        isolation: isolate;
      }
    </style>
  </defs>
  <g id="Layer_1-2" data-name="Layer 1">
    <g id="Group_119" data-name="Group 119">
      <g id="Ellipse_35-2" data-name="Ellipse 35-2">
        <circle class="cls-1" cx="63.66" cy="63.66" r="63.64"/>
      </g>
      <g id="O2_s_largest_UK_channel_partner" data-name="O2 s largest UK channel partner" class="cls-3">
        <g class="cls-3">
          <path class="cls-2" d="m24.61,42.83c-.58-.93-.69-2.1-.33-3.5.07-.3.19-.74.36-1.31.17-.58.3-1.02.39-1.32.43-1.35,1.15-2.28,2.16-2.78,1.01-.5,2.19-.55,3.54-.17,1.35.39,2.33,1.06,2.92,2.02.6.96.72,2.13.37,3.5-.15.6-.27,1.04-.35,1.33-.08.28-.21.71-.41,1.3-.45,1.38-1.17,2.31-2.15,2.79-.98.48-2.17.53-3.56.13-1.39-.4-2.38-1.06-2.96-2Zm5.29.08c.53-.3.93-.87,1.21-1.71.2-.61.33-1.02.39-1.24.07-.24.18-.65.33-1.26.21-.86.17-1.56-.12-2.09-.29-.53-.78-.9-1.47-1.1-.68-.19-1.28-.14-1.81.16-.53.3-.93.87-1.21,1.71-.09.29-.22.71-.37,1.24-.15.52-.26.94-.34,1.25-.21.86-.18,1.56.11,2.09.29.53.77.9,1.46,1.09.69.2,1.29.15,1.82-.15Z"/>
          <path class="cls-2" d="m33.79,46.33c-.05-.09-.06-.19-.03-.29l.22-.79c.08-.28.28-.48.59-.61l3.12-1.72c1.29-.53,2.22-.96,2.76-1.31.55-.35.89-.75,1.02-1.2.14-.48.12-.9-.07-1.25-.18-.35-.53-.6-1.06-.75-.51-.15-.96-.11-1.34.11-.38.22-.68.56-.89,1.02-.07.11-.15.19-.25.22-.1.03-.2.03-.3,0l-1.37-.39c-.09-.03-.16-.08-.2-.16s-.05-.16-.03-.24c.19-.6.52-1.12.98-1.56.46-.44,1.03-.74,1.7-.89.68-.16,1.41-.12,2.2.11.82.24,1.47.58,1.96,1.02s.81.96.95,1.53c.15.57.13,1.17-.05,1.8-.2.69-.57,1.25-1.11,1.7-.54.44-1.3.87-2.27,1.28l-2.82,1.59,4.38,1.26c.11.03.19.09.24.18.05.09.06.19.02.3l-.31,1.09c-.03.1-.09.18-.17.23-.09.05-.19.06-.3.03l-7.35-2.11c-.1-.03-.18-.09-.23-.18Z"/>
          <path class="cls-2" d="m45.47,41.59c-.03-.08-.03-.17,0-.26l1.16-2.48c.06-.14.15-.24.26-.31s.23-.08.38-.04l1.42.41c.07.02.13.07.17.14.04.07.05.14.03.22-.02.06-.05.13-.11.2l-1.71,2.25c-.1.11-.19.18-.28.24-.09.05-.21.06-.34.02l-.78-.23c-.09-.03-.16-.08-.19-.15Z"/>
          <path class="cls-2" d="m47.9,50.29c-.46-.38-.77-.76-.93-1.15-.16-.38-.21-.69-.15-.92.03-.1.09-.17.18-.21.09-.04.18-.05.27-.02l1.21.35c.09.03.16.08.2.17.03.04.11.17.24.37.13.21.3.4.5.56.21.16.46.28.74.36.41.12.77.13,1.09.04.31-.09.51-.27.59-.56.06-.22.05-.41-.03-.57-.08-.17-.26-.35-.54-.54-.28-.2-.7-.44-1.27-.74-.82-.43-1.38-.9-1.69-1.4-.31-.5-.37-1.06-.19-1.69.12-.41.35-.76.7-1.06.35-.29.8-.49,1.36-.58.55-.09,1.17-.04,1.84.15.69.2,1.25.48,1.69.84.44.37.75.74.92,1.11.17.38.23.68.16.92-.03.09-.08.16-.17.21-.09.05-.17.06-.27.03l-1.14-.33c-.08-.02-.16-.08-.23-.18-.06-.07-.14-.2-.25-.39-.11-.19-.26-.35-.44-.49-.18-.14-.41-.25-.69-.33-.38-.11-.7-.11-.96,0-.26.1-.42.29-.5.55-.06.19-.05.37.02.52.07.15.23.33.5.52.26.2.68.44,1.24.72.93.48,1.55.98,1.85,1.51.31.53.38,1.09.21,1.69-.21.72-.69,1.21-1.44,1.48s-1.7.25-2.82-.08c-.77-.22-1.38-.52-1.84-.9Z"/>
          <path class="cls-2" d="m58.61,53.45c-.05-.09-.06-.19-.03-.29l2.92-10.18c.03-.11.09-.19.19-.24.09-.05.19-.06.29-.03l1.28.37c.11.03.19.09.24.18.05.08.06.18.02.3l-2.92,10.18c-.03.1-.09.18-.17.23-.09.05-.19.06-.3.03l-1.28-.37c-.1-.03-.18-.09-.23-.18Z"/>
          <path class="cls-2" d="m63.47,54.78c-.38-.33-.64-.72-.79-1.15-.15-.43-.16-.86-.04-1.29.2-.7.64-1.18,1.33-1.45.69-.27,1.55-.34,2.57-.21l2.2.3.09-.32c.13-.45.11-.82-.05-1.11-.16-.29-.49-.51-1-.65-.34-.1-.63-.11-.88-.04-.25.07-.45.15-.61.23-.16.1-.27.16-.32.19-.08.11-.17.15-.28.12l-1.18-.34c-.09-.03-.16-.08-.21-.16-.05-.08-.06-.17-.03-.28.08-.25.29-.51.63-.77.33-.26.79-.43,1.36-.53.57-.09,1.22-.03,1.95.17,1.21.35,2.01.87,2.41,1.57s.47,1.5.22,2.38l-1.38,4.83c-.03.1-.09.18-.17.23-.09.05-.19.06-.3.03l-1.25-.36c-.1-.03-.18-.09-.23-.18-.05-.09-.06-.19-.03-.29l.17-.6c-.32.26-.72.44-1.19.53-.48.09-1.02.05-1.64-.13-.52-.15-.97-.39-1.35-.73Zm3.83-.74c.46-.27.8-.75,1-1.46l.09-.32-1.61-.2c-.62-.08-1.11-.06-1.47.06-.36.12-.58.33-.67.62-.09.33-.03.62.2.89.22.26.53.45.92.56.56.16,1.08.11,1.54-.16Z"/>
          <path class="cls-2" d="m71.46,57.13c-.05-.09-.06-.19-.03-.29l2.08-7.24c.03-.1.09-.18.18-.24.09-.06.19-.07.29-.04l1.25.36c.11.03.2.1.25.19s.06.2.03.31l-.18.63c.34-.26.72-.42,1.15-.49.42-.07.88-.03,1.36.11l.63.18c.11.03.19.09.24.18.05.09.06.18.02.3l-.32,1.11c-.03.1-.09.18-.17.23-.09.05-.19.06-.3.03l-1.2-.34c-.48-.14-.9-.11-1.26.09-.36.2-.6.54-.74,1.02l-1.21,4.23c-.03.1-.09.18-.18.23-.09.05-.2.06-.31.03l-1.34-.38c-.1-.03-.18-.09-.23-.18Z"/>
          <path class="cls-2" d="m78.17,62.35c-.48-.46-.78-.93-.9-1.38s-.15-.82-.07-1.1c.03-.09.09-.16.19-.21.1-.05.19-.06.28-.04l1.34.38c.09.03.16.07.22.14.05.06.08.17.09.3.02.31.12.59.3.84.18.26.51.46,1,.6.62.18,1.11.17,1.48-.02s.65-.63.85-1.3l.3-1.05c-.75.51-1.64.61-2.66.32-1.07-.31-1.77-.86-2.12-1.67-.35-.81-.39-1.78-.11-2.89l.1-.42.13-.41c.35-1.07.9-1.87,1.63-2.38.74-.52,1.63-.62,2.69-.32.54.16.99.4,1.34.72s.61.7.79,1.14l.18-.62c.03-.11.09-.19.19-.25.09-.05.19-.06.29-.03l1.25.36c.1.03.18.09.23.19s.06.2.03.3l-2.11,7.42c-.33,1.14-.9,1.93-1.71,2.37-.82.44-1.86.48-3.13.12-.91-.26-1.61-.62-2.08-1.09Zm4.93-4.17c.4-.29.69-.69.87-1.21.03-.08.09-.25.16-.5.07-.25.11-.41.12-.5.13-.55.09-1.05-.09-1.51-.19-.45-.57-.76-1.16-.93-1.11-.32-1.89.2-2.34,1.54l-.12.36c-.21.73-.25,1.35-.11,1.87.14.52.53.87,1.19,1.05.58.17,1.08.11,1.47-.18Z"/>
          <path class="cls-2" d="m88.05,61.1c-.48-.85-.57-1.89-.27-3.1l.09-.39.13-.38c.39-1.15,1.01-1.97,1.87-2.44.86-.47,1.86-.55,2.99-.23,1.21.35,2.04.99,2.49,1.91.45.93.5,2.01.14,3.24l-.09.32c-.03.1-.09.18-.18.23-.09.05-.2.06-.31.03l-5.11-1.46-.04.12c-.14.57-.12,1.09.06,1.56.18.47.53.78,1.04.92.61.17,1.16.08,1.66-.29.12-.09.22-.14.29-.15.06-.02.15,0,.27.03l1.32.38c.09.03.16.08.21.15.05.08.06.15.04.24-.07.25-.3.49-.69.74-.39.25-.89.42-1.5.51-.61.09-1.28.03-2-.17-1.14-.33-1.95-.92-2.43-1.77Zm5.53-2.58v-.05c.19-.61.17-1.14-.02-1.59-.2-.46-.56-.76-1.09-.91-.53-.15-1-.09-1.41.2-.4.28-.69.73-.87,1.33v.05s3.39.97,3.39.97Z"/>
          <path class="cls-2" d="m97.1,64.4c-.46-.38-.77-.76-.93-1.15s-.21-.69-.15-.92c.03-.1.09-.17.18-.21.09-.04.18-.05.27-.02l1.22.35c.09.03.16.08.2.17.03.04.11.17.24.37.13.21.3.4.51.56.21.16.46.28.74.36.41.12.77.13,1.09.04s.51-.28.59-.56c.06-.22.05-.41-.03-.57-.08-.17-.26-.35-.53-.54-.28-.2-.7-.44-1.27-.74-.82-.43-1.38-.9-1.69-1.4s-.37-1.06-.19-1.69c.12-.41.35-.76.7-1.05.35-.29.8-.49,1.36-.58.55-.09,1.17-.04,1.84.15.69.2,1.25.48,1.69.84.44.36.75.74.92,1.11.17.38.23.68.16.92-.03.09-.08.16-.17.21-.09.05-.17.06-.27.03l-1.14-.33c-.08-.02-.16-.08-.23-.18-.06-.07-.14-.2-.25-.39-.11-.19-.26-.35-.44-.49-.18-.14-.41-.25-.69-.33-.38-.11-.7-.11-.96,0-.26.1-.42.29-.5.56-.06.19-.05.37.02.52s.23.33.5.53c.26.2.68.44,1.24.72.93.48,1.55.98,1.85,1.51s.38,1.1.21,1.69c-.21.72-.69,1.21-1.44,1.48-.75.27-1.7.25-2.82-.08-.77-.22-1.38-.52-1.84-.9Z"/>
          <path class="cls-2" d="m105.83,66.32c-.33-.62-.36-1.4-.08-2.35l1-3.49-1.21-.35c-.1-.03-.18-.09-.23-.19-.05-.1-.06-.2-.03-.3l.25-.88c.03-.1.09-.18.18-.23.09-.05.19-.06.29-.03l1.21.35.73-2.55c.03-.11.09-.19.19-.24.09-.05.19-.05.29-.03l1.25.36c.11.03.19.09.24.18.05.08.06.18.02.3l-.73,2.55,1.92.55c.11.03.19.09.24.18s.06.18.02.3l-.25.88c-.03.11-.1.2-.19.25-.09.05-.19.06-.29.03l-1.92-.55-.96,3.34c-.13.44-.15.8-.06,1.07.09.27.31.46.67.56l1.06.3c.1.03.18.09.23.18.05.09.06.19.03.29l-.27.95c-.03.1-.09.18-.17.23-.09.05-.19.06-.3.03l-1.25-.36c-.93-.27-1.56-.71-1.89-1.33Z"/>
        </g>
        <g class="cls-3">
          <path class="cls-2" d="m21.52,61.72c-.57-.93-.64-2.11-.23-3.54l1.79-6.26c.03-.11.09-.2.18-.25.09-.05.19-.06.3-.03l1.4.4c.11.03.19.09.24.19.05.09.05.19.02.3l-1.79,6.26c-.24.82-.22,1.49.05,2.02.27.53.76.89,1.48,1.1s1.33.16,1.83-.15c.5-.3.87-.87,1.11-1.69l1.79-6.26c.03-.11.09-.2.19-.25.09-.05.19-.06.31-.03l1.38.4c.11.03.19.09.24.19.05.09.05.19.02.3l-1.79,6.26c-.41,1.44-1.1,2.4-2.07,2.89-.97.49-2.14.53-3.53.14-1.38-.4-2.36-1.06-2.93-1.99Z"/>
          <path class="cls-2" d="m31.31,65.39c-.05-.09-.06-.19-.03-.29l2.87-10.01c.03-.11.09-.2.18-.25.09-.05.19-.06.3-.03l1.35.39c.11.03.19.09.25.19.05.09.06.19.03.31l-1.03,3.6,4.54-2.71c.19-.15.41-.18.68-.11l1.52.44c.08.02.15.08.2.16.05.08.06.17.03.26-.02.07-.06.13-.11.17l-5.56,3.43,3.06,6.39c.03.08.04.15.02.22-.03.09-.08.16-.17.2-.08.04-.17.05-.25.03l-1.58-.45c-.26-.07-.43-.22-.52-.45l-2.55-5.14-1.14,3.98c-.03.11-.09.19-.18.24-.09.05-.19.05-.31.02l-1.35-.39c-.1-.03-.18-.09-.23-.18Z"/>
          <path class="cls-2" d="m45.1,68.61c-.49-.82-.6-1.79-.32-2.91l.16-.62.19-.61c.36-1.1.96-1.86,1.81-2.29.85-.43,1.84-.49,2.97-.17.8.23,1.44.57,1.91,1.02.48.45.79.92.94,1.41.15.49.19.93.1,1.3-.02.11-.08.18-.17.23-.1.05-.2.06-.3.03l-1.35-.39c-.1-.03-.18-.07-.22-.14-.04-.06-.08-.16-.09-.29-.04-.44-.16-.79-.36-1.04-.2-.25-.5-.42-.89-.54-.52-.15-.98-.1-1.37.15s-.7.71-.91,1.38l-.18.56-.13.51c-.34,1.35.03,2.19,1.13,2.5.4.12.75.12,1.04.02.3-.1.58-.33.85-.69.08-.1.16-.16.23-.19.07-.03.16-.03.26,0l1.35.39c.1.03.18.09.24.18.06.09.06.19.03.29-.12.35-.38.7-.76,1.03-.38.33-.9.57-1.54.71-.64.14-1.37.09-2.19-.15-1.13-.32-1.94-.89-2.43-1.71Z"/>
          <path class="cls-2" d="m53.05,71.62c-.05-.09-.06-.19-.03-.29l2.92-10.18c.03-.11.09-.19.19-.24.09-.05.19-.05.29-.03l1.37.39c.11.03.19.09.24.18s.05.19.02.3l-1,3.51c.83-.56,1.76-.69,2.81-.39.94.27,1.61.8,1.99,1.58.39.78.43,1.71.12,2.77l-1.24,4.32c-.03.1-.09.18-.17.23-.09.05-.19.06-.3.03l-1.38-.4c-.1-.03-.18-.09-.23-.18-.05-.09-.06-.19-.03-.29l1.21-4.23c.17-.6.16-1.12-.04-1.53-.2-.42-.57-.7-1.12-.86-.54-.16-1.02-.11-1.44.14-.42.25-.71.67-.88,1.26l-1.21,4.23c-.03.1-.09.18-.17.23-.09.05-.19.06-.3.03l-1.37-.39c-.1-.03-.18-.09-.23-.18Z"/>
          <path class="cls-2" d="m63.5,74.56c-.38-.33-.64-.72-.79-1.15-.15-.43-.16-.86-.04-1.29.2-.7.64-1.18,1.33-1.45.69-.27,1.55-.34,2.57-.21l2.2.3.09-.32c.13-.45.11-.82-.05-1.11-.16-.29-.49-.51-.99-.65-.34-.1-.63-.11-.88-.04-.25.07-.45.15-.61.23-.16.1-.27.16-.32.19-.08.11-.17.15-.28.12l-1.18-.34c-.09-.03-.16-.08-.21-.16-.05-.08-.06-.17-.03-.28.08-.25.29-.51.63-.77s.79-.43,1.36-.53c.57-.09,1.22-.03,1.95.17,1.21.35,2.01.87,2.41,1.57.4.7.47,1.49.22,2.38l-1.38,4.83c-.03.1-.09.18-.17.23-.09.05-.19.06-.3.03l-1.25-.36c-.1-.03-.18-.09-.23-.18-.05-.09-.06-.19-.03-.29l.17-.6c-.32.26-.72.44-1.19.53-.48.09-1.02.05-1.64-.13-.52-.15-.97-.39-1.35-.73Zm3.83-.74c.46-.27.8-.75,1-1.46l.09-.32-1.61-.2c-.62-.08-1.11-.06-1.47.06-.36.12-.58.33-.67.62-.09.33-.03.62.2.89.22.26.53.45.92.56.56.16,1.08.11,1.54-.16Z"/>
          <path class="cls-2" d="m71.49,76.91c-.05-.09-.06-.19-.03-.29l2.08-7.26c.03-.1.09-.18.18-.23.09-.05.19-.06.29-.03l1.26.36c.1.03.18.09.23.18.05.09.06.19.03.29l-.18.63c.83-.6,1.79-.74,2.9-.42.94.27,1.6.8,1.98,1.58s.41,1.7.1,2.77l-1.24,4.32c-.03.1-.09.18-.17.23-.09.05-.19.06-.3.03l-1.35-.39c-.1-.03-.18-.09-.23-.18-.05-.09-.06-.19-.03-.29l1.21-4.23c.17-.61.16-1.12-.04-1.53s-.57-.7-1.12-.86c-.54-.16-1.02-.11-1.43.14-.41.25-.7.67-.87,1.27l-1.21,4.23c-.03.1-.09.18-.17.23-.09.05-.19.06-.3.03l-1.35-.39c-.1-.03-.18-.09-.23-.18Z"/>
          <path class="cls-2" d="m81.09,79.66c-.05-.09-.06-.19-.03-.29l2.08-7.26c.03-.1.09-.18.18-.23.09-.05.19-.06.29-.03l1.26.36c.1.03.18.09.23.18.05.09.06.19.03.29l-.18.63c.83-.6,1.79-.74,2.9-.42.94.27,1.6.8,1.98,1.58.38.78.41,1.7.1,2.77l-1.24,4.32c-.03.1-.09.18-.17.23-.09.05-.19.06-.3.03l-1.35-.39c-.1-.03-.18-.09-.23-.18-.05-.09-.06-.19-.03-.29l1.21-4.23c.17-.61.16-1.12-.04-1.53-.2-.42-.57-.71-1.12-.86-.54-.16-1.02-.11-1.43.14-.41.25-.7.67-.87,1.27l-1.21,4.23c-.03.1-.09.18-.17.23-.09.05-.19.06-.3.03l-1.35-.39c-.1-.03-.18-.09-.23-.18Z"/>
          <path class="cls-2" d="m91.52,81.86c-.48-.85-.57-1.89-.27-3.1l.09-.39.13-.38c.39-1.15,1.01-1.97,1.87-2.44.86-.47,1.86-.55,2.99-.23,1.21.35,2.04.98,2.49,1.91.45.93.5,2.01.15,3.24l-.09.32c-.03.1-.09.18-.18.23-.09.05-.2.06-.31.03l-5.11-1.46-.04.12c-.14.57-.12,1.09.06,1.56.18.47.53.78,1.04.92.6.17,1.16.08,1.66-.29.12-.09.22-.14.28-.15s.15,0,.27.03l1.32.38c.09.03.16.08.21.15.05.08.06.15.04.24-.07.25-.3.49-.69.74-.39.25-.89.42-1.5.51-.61.09-1.28.03-2-.17-1.14-.33-1.95-.92-2.43-1.77Zm5.53-2.58v-.05c.19-.61.17-1.14-.02-1.59s-.56-.76-1.09-.91c-.53-.15-1-.09-1.41.2-.4.28-.69.73-.87,1.33v.05s3.39.97,3.39.97Z"/>
          <path class="cls-2" d="m99.58,84.96c-.05-.09-.06-.19-.03-.29l2.92-10.18c.03-.11.09-.19.19-.24s.19-.06.29-.03l1.28.37c.11.03.19.09.24.18.05.08.06.19.02.3l-2.92,10.18c-.03.1-.09.18-.17.23-.09.05-.19.06-.3.03l-1.28-.37c-.1-.03-.18-.09-.23-.18Z"/>
        </g>
        <g class="cls-3">
          <path class="cls-2" d="m29.54,87.82c-.05-.09-.06-.19-.03-.3l2.92-10.18c.03-.11.09-.19.18-.24s.19-.05.29-.03l1.22.35c.11.03.19.09.24.18.05.09.05.18.02.3l-.18.62c.79-.59,1.72-.74,2.79-.43,1.04.3,1.74.85,2.1,1.66.37.81.41,1.77.13,2.89-.02.13-.07.31-.14.54-.07.25-.13.43-.17.55-.35,1.07-.9,1.85-1.64,2.35-.74.5-1.63.61-2.67.31-1.04-.3-1.72-.89-2.06-1.77l-1,3.49c-.03.11-.09.19-.18.24-.09.05-.19.05-.3.02l-1.31-.37c-.1-.03-.18-.09-.23-.18Zm7.33-4.78c.04-.1.09-.25.15-.46.06-.2.1-.36.12-.46.32-1.38-.08-2.24-1.18-2.55-.59-.17-1.09-.11-1.49.19-.4.3-.69.72-.88,1.26l-.18.58-.16.6c-.13.52-.09,1,.11,1.45.2.45.58.76,1.16.92,1.11.32,1.89-.2,2.36-1.54Z"/>
          <path class="cls-2" d="m40.6,87.76c-.38-.33-.64-.72-.79-1.15-.15-.43-.16-.86-.04-1.29.2-.7.64-1.18,1.33-1.45.69-.27,1.54-.34,2.57-.21l2.2.3.09-.32c.13-.45.11-.82-.05-1.11-.16-.29-.49-.51-1-.65-.34-.1-.63-.11-.88-.04-.25.07-.45.15-.61.23-.16.1-.27.16-.32.19-.08.11-.17.15-.28.12l-1.18-.34c-.09-.03-.16-.08-.21-.16-.05-.08-.06-.17-.03-.27.08-.25.29-.51.63-.77s.79-.43,1.36-.53c.57-.09,1.22-.03,1.95.18,1.21.35,2.01.87,2.41,1.57.4.7.47,1.5.22,2.38l-1.38,4.83c-.03.1-.09.18-.17.23-.09.05-.19.06-.3.03l-1.25-.36c-.1-.03-.18-.09-.23-.18-.05-.09-.06-.19-.03-.29l.17-.6c-.32.26-.72.44-1.19.53-.48.09-1.02.05-1.64-.13-.52-.15-.97-.39-1.35-.73Zm3.83-.74c.46-.27.8-.75,1-1.46l.09-.32-1.61-.2c-.62-.08-1.11-.06-1.47.06-.36.12-.58.33-.67.62-.09.33-.03.62.19.89.22.26.53.45.92.56.56.16,1.08.11,1.54-.16Z"/>
          <path class="cls-2" d="m48.59,90.11c-.05-.09-.06-.19-.03-.29l2.08-7.24c.03-.1.09-.18.18-.24.09-.06.19-.07.29-.04l1.25.36c.11.03.19.1.25.19.05.09.06.2.03.31l-.18.63c.34-.26.72-.42,1.15-.49.42-.07.88-.03,1.36.11l.63.18c.11.03.19.09.24.18.05.09.05.18.02.3l-.32,1.11c-.03.1-.09.18-.17.23-.09.05-.19.06-.3.03l-1.2-.34c-.48-.14-.9-.11-1.26.09-.36.2-.6.54-.74,1.02l-1.21,4.23c-.03.1-.09.18-.18.23-.09.05-.19.06-.31.03l-1.34-.38c-.1-.03-.18-.09-.23-.18Z"/>
          <path class="cls-2" d="m56.58,91.73c-.33-.62-.36-1.4-.08-2.35l1-3.49-1.21-.35c-.1-.03-.18-.09-.23-.19-.05-.1-.06-.2-.03-.3l.25-.88c.03-.1.09-.18.18-.23.09-.05.19-.06.29-.03l1.21.35.73-2.55c.03-.11.09-.19.19-.24.09-.05.19-.05.29-.03l1.25.36c.11.03.19.09.24.18.05.08.06.19.02.3l-.73,2.55,1.92.55c.11.03.19.09.24.18s.06.18.02.3l-.25.88c-.03.11-.09.2-.19.25-.09.05-.19.06-.29.03l-1.92-.55-.96,3.34c-.13.44-.14.8-.06,1.07.09.27.31.46.67.56l1.06.3c.1.03.18.09.23.18.05.09.06.19.03.29l-.27.95c-.03.1-.09.18-.18.23-.09.05-.19.06-.3.03l-1.25-.36c-.93-.27-1.56-.71-1.89-1.33Z"/>
          <path class="cls-2" d="m61.6,93.84c-.05-.09-.06-.19-.03-.29l2.08-7.26c.03-.1.09-.18.18-.23.09-.05.19-.06.29-.03l1.26.36c.1.03.18.09.23.18.05.09.06.19.03.29l-.18.63c.83-.6,1.79-.73,2.9-.42.94.27,1.6.79,1.98,1.58.38.78.41,1.7.1,2.77l-1.24,4.32c-.03.1-.09.18-.17.23s-.19.06-.3.03l-1.35-.39c-.1-.03-.18-.09-.23-.18-.05-.09-.06-.19-.03-.29l1.21-4.23c.17-.61.16-1.12-.04-1.53-.2-.42-.57-.71-1.13-.86-.54-.16-1.02-.11-1.43.14-.41.25-.7.67-.87,1.26l-1.21,4.23c-.03.1-.09.18-.17.23-.09.05-.19.06-.3.03l-1.35-.39c-.1-.03-.18-.09-.23-.18Z"/>
          <path class="cls-2" d="m72.03,96.04c-.48-.85-.57-1.89-.27-3.1l.09-.39.13-.38c.39-1.15,1.01-1.97,1.87-2.44.86-.47,1.86-.55,2.99-.23,1.21.35,2.04.99,2.49,1.91.45.93.5,2.01.14,3.24l-.09.32c-.03.1-.09.18-.18.23-.09.05-.19.06-.31.03l-5.11-1.46-.04.12c-.14.57-.12,1.09.06,1.56.18.47.53.78,1.04.92.61.17,1.16.08,1.66-.29.12-.09.22-.14.29-.15.06-.02.15,0,.27.03l1.32.38c.09.03.16.08.21.15.05.08.06.15.04.24-.07.25-.3.49-.69.74s-.89.42-1.5.51c-.61.09-1.28.03-2-.17-1.14-.33-1.95-.92-2.43-1.77Zm5.53-2.58v-.05c.19-.61.17-1.14-.02-1.59-.2-.46-.56-.76-1.09-.91-.53-.15-1-.09-1.4.2-.4.28-.69.73-.87,1.33v.05s3.39.98,3.39.98Z"/>
          <path class="cls-2" d="m80.07,99.14c-.05-.09-.06-.19-.03-.29l2.08-7.24c.03-.1.09-.18.18-.24.09-.06.19-.07.29-.04l1.25.36c.11.03.19.1.25.19.05.09.06.2.03.31l-.18.63c.34-.26.72-.42,1.15-.49.42-.07.88-.03,1.36.11l.63.18c.11.03.19.09.24.18s.05.18.02.3l-.32,1.11c-.03.1-.09.18-.17.23-.09.05-.19.06-.3.03l-1.2-.34c-.48-.14-.9-.11-1.26.09-.36.2-.6.54-.74,1.02l-1.21,4.23c-.03.1-.09.18-.18.23-.09.05-.2.06-.31.03l-1.34-.38c-.1-.03-.18-.09-.23-.18Z"/>
        </g>
      </g>
    </g>
  </g>
</svg>