<svg xmlns="http://www.w3.org/2000/svg" xmlns:xlink="http://www.w3.org/1999/xlink" width="18" height="33.534" viewBox="0 0 18 33.534">
  <defs>
    <linearGradient id="linear-gradient" x1="0.5" y1="1" x2="0.5" y2="0.047" gradientUnits="objectBoundingBox">
      <stop offset="0" stop-color="#448859"/>
      <stop offset="0.003" stop-color="#d1da47"/>
      <stop offset="1" stop-color="#171a32"/>
    </linearGradient>
    <linearGradient id="linear-gradient-2" x1="0.5" y1="1" x2="0.5" gradientUnits="objectBoundingBox">
      <stop offset="0" stop-color="#171a32"/>
      <stop offset="1" stop-color="#171a32"/>
    </linearGradient>
    <linearGradient id="linear-gradient-3" x1="0.5" y1="1" x2="0.5" gradientUnits="objectBoundingBox">
      <stop offset="0" stop-color="#4e4e68"/>
      <stop offset="1" stop-color="#31314c"/>
    </linearGradient>
  </defs>
  <g id="Group_1032" data-name="Group 1032" transform="translate(-1244 -263.08)">
    <path id="Path_21426" data-name="Path 21426" d="M51.649,48.582c0,.156,0,.3,0,.432,0,.586,0,.921,0,.937a2.479,2.479,0,0,1-2.471,2.3H37.048a2.475,2.475,0,0,1-2.478-2.478V22.118a2.478,2.478,0,0,1,2.478-2.478H49.172a2.481,2.481,0,0,1,2.478,2.478c0,.043,0,2.014,0,4.889v.074c0,6.534.006,17.643,0,21.5Z" transform="translate(1209.606 243.901)" fill="url(#linear-gradient)"/>
    <path id="Path_21428" data-name="Path 21428" d="M43.133,13.14H31.008a2.941,2.941,0,0,0-2.938,2.938V43.737a2.941,2.941,0,0,0,2.938,2.938H43.133A2.943,2.943,0,0,0,46.066,43.9c0-.055,0-.11,0-.166V16.078a2.941,2.941,0,0,0-2.938-2.938Zm2.017,30.6a1.615,1.615,0,0,1-.008.166,2.019,2.019,0,0,1-2.01,1.851H31.008a2.02,2.02,0,0,1-2.017-2.017V16.078a2.02,2.02,0,0,1,2.017-2.017H33l.473,1.178a1.063,1.063,0,0,0,.985.666h5.33a1.062,1.062,0,0,0,.985-.666l.473-1.178h1.884a2.019,2.019,0,0,1,2.017,2.017Z" transform="translate(1215.93 249.94)" fill="url(#linear-gradient-2)"/>
    <path id="Path_21429" data-name="Path 21429" d="M97.392,448.733h-8.54a.46.46,0,0,1,0-.92h8.54a.46.46,0,0,1,0,.92Z" transform="translate(1159.594 -153.962)" fill="url(#linear-gradient-3)"/>
  </g>
</svg>
