<svg id="call" xmlns="http://www.w3.org/2000/svg" width="19.006" height="19.006" viewBox="0 0 19.006 19.006">
  <g id="Group_262" data-name="Group 262">
    <path id="Path_21440" data-name="Path 21440" d="M17.481,12.475a10.791,10.791,0,0,1-3.389-.54,1.549,1.549,0,0,0-1.507.318l-2.137,1.613a11.81,11.81,0,0,1-5.31-5.309L6.7,6.476A1.536,1.536,0,0,0,7.082,4.92,10.807,10.807,0,0,1,6.54,1.525,1.527,1.527,0,0,0,5.015,0H1.525A1.527,1.527,0,0,0,0,1.525,17.5,17.5,0,0,0,17.481,19.006a1.527,1.527,0,0,0,1.525-1.525V14A1.527,1.527,0,0,0,17.481,12.475Z" fill="#f3f4f6"/>
  </g>
</svg>
