<svg id="chatting" xmlns="http://www.w3.org/2000/svg" xmlns:xlink="http://www.w3.org/1999/xlink" width="70.698" height="61.965" viewBox="0 0 70.698 61.965">
  <defs>
    <linearGradient id="linear-gradient" x1="0.5" y1="-0.187" x2="0.926" y2="1.457" gradientUnits="objectBoundingBox">
      <stop offset="0" stop-color="#d1da47"/>
      <stop offset="1" stop-color="#171a32"/>
    </linearGradient>
  </defs>
  <path id="Path_76" data-name="Path 76" d="M48.885,31.622H7.995A8,8,0,0,0,0,39.617V75.449a2.073,2.073,0,0,0,3.274,1.686l11.388-8.125a5.575,5.575,0,0,1,3.253-1.041H42.962a8,8,0,0,0,7.995-7.995V33.693A2.072,2.072,0,0,0,48.885,31.622ZM38.825,56.713H14.894a2.071,2.071,0,0,1,0-4.142H38.825a2.071,2.071,0,1,1,0,4.142Zm0-9.666H14.894a2.071,2.071,0,1,1,0-4.142H38.825a2.071,2.071,0,1,1,0,4.142Z" transform="translate(0 -31.622)" fill="url(#linear-gradient)"/>
  <path id="Path_77" data-name="Path 77" d="M193.927,155.958v35.831a2.073,2.073,0,0,1-3.274,1.686l-11.388-8.123a5.574,5.574,0,0,0-3.253-1.041H150.965a8,8,0,0,1-7.995-8v-3.927h23.22a12.151,12.151,0,0,0,12.137-12.137V147.962h7.6A8,8,0,0,1,193.927,155.958Z" transform="translate(-123.228 -131.897)" fill="url(#linear-gradient)"/>
</svg>
