<svg xmlns="http://www.w3.org/2000/svg" xmlns:xlink="http://www.w3.org/1999/xlink" width="23.038" height="21.826" viewBox="0 0 23.038 21.826">
  <defs>
    <linearGradient id="linear-gradient" y1="-0.095" x2="1" y2="1" gradientUnits="objectBoundingBox">
      <stop offset="0" stop-color="#171a32"/>
      <stop offset="1" stop-color="#171a32"/>
    </linearGradient>
  </defs>
  <path id="check_3_" data-name="check (3)" d="M6.638,5.425A1.213,1.213,0,0,0,5.425,6.638v14.55A1.213,1.213,0,0,0,6.638,22.4h14.55A1.213,1.213,0,0,0,22.4,21.188V13.913a1.213,1.213,0,1,1,2.425,0v7.275a3.638,3.638,0,0,1-3.638,3.638H6.638A3.638,3.638,0,0,1,3,21.188V6.638A3.638,3.638,0,0,1,6.638,3H18.763a1.213,1.213,0,0,1,0,2.425Zm17.331-.857a1.213,1.213,0,1,1,1.715,1.715L14.77,17.2a1.213,1.213,0,0,1-1.715,0L9.418,13.558a1.213,1.213,0,1,1,1.715-1.715l2.78,2.78Z" transform="translate(-3 -3)" fill-rule="evenodd" fill="url(#linear-gradient)"/>
</svg>
