<svg xmlns="http://www.w3.org/2000/svg" xmlns:xlink="http://www.w3.org/1999/xlink" width="66.036" height="45.399" viewBox="0 0 66.036 45.399">
  <defs>
    <linearGradient id="linear-gradient" x1="-0.513" y1="-0.485" x2="-0.332" y2="2.751" gradientUnits="objectBoundingBox">
      <stop offset="0" stop-color="#d1da47"/>
      <stop offset="1" stop-color="#171a32"/>
    </linearGradient>
  </defs>
  <g id="email_4_" data-name="email (4)" transform="translate(0 -80.001)">
    <g id="Group_656" data-name="Group 656">
      <g id="Group_232" data-name="Group 232" transform="translate(43.773 88.371)">
        <g id="Group_231" data-name="Group 231">
          <path id="Path_21433" data-name="Path 21433" d="M339.392,159.564l22.262,14.074V144.9Z" transform="translate(-339.392 -144.896)" fill="url(#linear-gradient)"/>
        </g>
      </g>
      <g id="Group_234" data-name="Group 234" transform="translate(0 88.371)">
        <g id="Group_233" data-name="Group 233">
          <path id="Path_21434" data-name="Path 21434" d="M0,144.9v28.742l22.262-14.074Z" transform="translate(0 -144.896)" fill="url(#linear-gradient)"/>
        </g>
      </g>
      <g id="Group_236" data-name="Group 236" transform="translate(0.124 80.001)">
        <g id="Group_235" data-name="Group 235">
          <path id="Path_21435" data-name="Path 21435" d="M62.744,80H4.963a4.076,4.076,0,0,0-4,3.512l32.894,21.672L66.748,83.512A4.076,4.076,0,0,0,62.744,80Z" transform="translate(-0.96 -80)" fill="url(#linear-gradient)"/>
        </g>
      </g>
      <g id="Group_238" data-name="Group 238" transform="translate(0.132 105.527)">
        <g id="Group_237" data-name="Group 237">
          <path id="Path_21436" data-name="Path 21436" d="M40.885,277.924l-5.84,3.847a2.072,2.072,0,0,1-2.27,0l-5.84-3.851L1.024,294.309a4.069,4.069,0,0,0,4,3.483H62.8a4.069,4.069,0,0,0,4-3.483Z" transform="translate(-1.024 -277.92)" fill="url(#linear-gradient)"/>
        </g>
      </g>
    </g>
  </g>
</svg>
