<svg xmlns="http://www.w3.org/2000/svg" width="60.052" height="41.286" viewBox="0 0 60.052 41.286">
  <g id="email_4_" data-name="email (4)" transform="translate(0 -80)">
    <g id="Group_232" data-name="Group 232" transform="translate(39.807 87.612)">
      <g id="Group_231" data-name="Group 231">
        <path id="Path_21433" data-name="Path 21433" d="M339.392,158.235l20.245,12.8V144.9Z" transform="translate(-339.392 -144.896)" fill="#d1da47"/>
      </g>
    </g>
    <g id="Group_234" data-name="Group 234" transform="translate(0 87.612)">
      <g id="Group_233" data-name="Group 233">
        <path id="Path_21434" data-name="Path 21434" d="M0,144.9v26.138l20.245-12.8Z" transform="translate(0 -144.896)" fill="#d1da47"/>
      </g>
    </g>
    <g id="Group_236" data-name="Group 236" transform="translate(0.113 80)">
      <g id="Group_235" data-name="Group 235">
        <path id="Path_21435" data-name="Path 21435" d="M57.147,80H4.6A3.707,3.707,0,0,0,.96,83.194L30.874,102.9,60.787,83.194A3.707,3.707,0,0,0,57.147,80Z" transform="translate(-0.96 -80)" fill="#d1da47"/>
      </g>
    </g>
    <g id="Group_238" data-name="Group 238" transform="translate(0.12 103.214)">
      <g id="Group_237" data-name="Group 237">
        <path id="Path_21436" data-name="Path 21436" d="M37.273,277.924l-5.311,3.5a1.884,1.884,0,0,1-2.064,0l-5.311-3.5-23.563,14.9a3.7,3.7,0,0,0,3.633,3.168H57.2a3.7,3.7,0,0,0,3.633-3.168Z" transform="translate(-1.024 -277.92)" fill="#d1da47"/>
      </g>
    </g>
  </g>
</svg>
