<svg xmlns="http://www.w3.org/2000/svg" width="16.627" height="16.627" viewBox="0 0 16.627 16.627">
  <path id="facebook_13_" data-name="facebook (13)" d="M50.511,36H38.116A2.116,2.116,0,0,0,36,38.116V50.511a2.116,2.116,0,0,0,2.116,2.116h6.071V45.709H42.8V42.942h1.372V41.691a2.7,2.7,0,0,1,2.912-2.9l2.138.009V41.17H47.673a.586.586,0,0,0-.612.665v1.107h2.2l-.252,2.767H46.955v6.918h3.556a2.116,2.116,0,0,0,2.116-2.116V38.116A2.116,2.116,0,0,0,50.511,36Z" transform="translate(-36 -36)" fill="#fff"/>
</svg>
