<svg id="Layer_2" data-name="Layer 2" xmlns="http://www.w3.org/2000/svg" width="16.627" height="16.627" viewBox="0 0 16.627 16.627">
  <g id="linkedin" transform="translate(0)">
    <path id="icon" d="M14.36,0H2.267A2.267,2.267,0,0,0,0,2.267V14.36a2.267,2.267,0,0,0,2.267,2.267H14.36a2.267,2.267,0,0,0,2.267-2.267V2.267A2.267,2.267,0,0,0,14.36,0ZM5.668,13.158a.35.35,0,0,1-.35.351H3.824a.35.35,0,0,1-.351-.351V6.9a.351.351,0,0,1,.351-.351H5.318a.351.351,0,0,1,.35.351Zm-1.1-7.206A1.417,1.417,0,1,1,5.988,4.535,1.417,1.417,0,0,1,4.571,5.952Zm8.9,7.231a.322.322,0,0,1-.323.323H11.546a.322.322,0,0,1-.323-.323V10.249c0-.438.128-1.92-1.146-1.92C9.09,8.33,8.889,9.343,8.849,9.8v3.388a.323.323,0,0,1-.318.323H6.98a.322.322,0,0,1-.322-.323V6.869a.322.322,0,0,1,.322-.323H8.531a.323.323,0,0,1,.323.323v.546a2.2,2.2,0,0,1,2.069-.974c2.568,0,2.551,2.4,2.551,3.715Z" transform="translate(0)" fill="#fff"/>
  </g>
</svg>
