<svg xmlns="http://www.w3.org/2000/svg" width="57.663" height="57.407" viewBox="0 0 57.663 57.407">
  <g id="Group_139" data-name="Group 139" transform="translate(-1711 -939)">
    <path id="Subtraction_1" data-name="Subtraction 1" d="M-961.062-3182.478h-22.789a3.058,3.058,0,0,1-.774-.1c-.789.065-1.594.1-2.391.1a28.524,28.524,0,0,1-11.173-2.256,28.6,28.6,0,0,1-9.124-6.151,28.609,28.609,0,0,1-6.151-9.124,28.524,28.524,0,0,1-2.256-11.173,28.524,28.524,0,0,1,2.256-11.173,28.609,28.609,0,0,1,6.151-9.124,28.6,28.6,0,0,1,9.124-6.151,28.524,28.524,0,0,1,11.173-2.256,28.524,28.524,0,0,1,11.173,2.256,28.606,28.606,0,0,1,9.124,6.151,28.61,28.61,0,0,1,6.151,9.124,28.524,28.524,0,0,1,2.256,11.173,28.559,28.559,0,0,1-4.927,16.085l4.763,8.1a2.97,2.97,0,0,1,.018,3.011A2.968,2.968,0,0,1-961.062-3182.478Zm-33.027-23.564v1.78a3.628,3.628,0,0,0,3.623,3.624h11.352a2.527,2.527,0,0,1,1.474.471l5.161,3.682a.927.927,0,0,0,.54.176.944.944,0,0,0,.944-.939v-16.24a3.628,3.628,0,0,0-3.624-3.624h-3.446v5.569a5.507,5.507,0,0,1-5.5,5.5Zm-5.324-18.351a3.628,3.628,0,0,0-3.623,3.624v16.24a.944.944,0,0,0,.943.939.928.928,0,0,0,.541-.175l5.161-3.683a2.536,2.536,0,0,1,1.475-.472h11.352a3.628,3.628,0,0,0,3.623-3.623v-11.912a.94.94,0,0,0-.939-.939Zm13.972,11.372h-10.846a.94.94,0,0,1-.939-.939.94.94,0,0,1,.939-.939h10.846a.94.94,0,0,1,.94.939A.94.94,0,0,1-985.442-3213.021Zm0-4.38h-10.846a.94.94,0,0,1-.939-.939.94.94,0,0,1,.939-.939h10.846a.94.94,0,0,1,.94.939A.94.94,0,0,1-985.442-3217.4Z" transform="translate(2726.72 4178.885)" fill="#d1da47"/>
  </g>
</svg>
