<svg id="Group_268" data-name="Group 268" xmlns="http://www.w3.org/2000/svg" xmlns:xlink="http://www.w3.org/1999/xlink" width="188.31" height="47.108" viewBox="0 0 188.31 47.108">
  <defs>
    <clipPath id="clip-path">
      <rect id="Rectangle_234" data-name="Rectangle 234" width="188.31" height="47.108" fill="#f3f4f6"/>
    </clipPath>
  </defs>
  <g id="Group_268-2" data-name="Group 268" clip-path="url(#clip-path)">
    <path id="Path_21443" data-name="Path 21443" d="M368.806,10.915a2.713,2.713,0,0,0,2.745-2.794V6.97h-3.312v-3.7a2.725,2.725,0,0,0-.8-1.973,2.54,2.54,0,0,0-1.857-.823h-2.9V24.648q0,3.78,3.107,4.027a40.69,40.69,0,0,0,5.772.081V24.485h-1.7c-1.072,0-1.614-.467-1.614-1.4V10.915Z" transform="translate(-183.242 -0.239)" fill="#d1da47"/>
    <path id="Path_21444" data-name="Path 21444" d="M261.879,12.45a15.233,15.233,0,0,0-4.238.592,9.733,9.733,0,0,0-3.592,1.853,9.091,9.091,0,0,0-2.541,3.584A14.459,14.459,0,0,0,250.579,24V34.875h5.65V23.325a5.235,5.235,0,0,1,1.129-3.711,4.622,4.622,0,0,1,3.472-1.177h1.857V12.45h-.808Z" transform="translate(-126.606 -6.29)" fill="#d1da47"/>
    <path id="Path_21445" data-name="Path 21445" d="M289.451,29.217a1.615,1.615,0,0,1-.4.319,4.552,4.552,0,0,1-2.339.565,3.81,3.81,0,0,1-3.149-1.29,5.535,5.535,0,0,1-1.214-3.705h13.967a1.384,1.384,0,0,0,.082-.565v-.889q0-5.319-2.583-8.3a9.673,9.673,0,0,0-7.509-2.9,8.993,8.993,0,0,0-7.182,2.984q-2.506,2.9-2.5,8.06,0,5.4,2.584,8.3a9,9,0,0,0,7.184,2.984,10.273,10.273,0,0,0,6.295-1.855,8.8,8.8,0,0,0,3.392-5.158h-4.037a2.414,2.414,0,0,0-1.492.4m-8.2-6.691a4.633,4.633,0,0,1,1.214-3.224,3.918,3.918,0,0,1,2.9-1.127,3.872,3.872,0,0,1,2.986,1.127,5.227,5.227,0,0,1,1.132,3.224Z" transform="translate(-139.762 -6.29)" fill="#d1da47"/>
    <path id="Path_21446" data-name="Path 21446" d="M333.23,28.167a3.62,3.62,0,0,0-.647.644l-.443.444a1.081,1.081,0,0,1-.445.282,4.562,4.562,0,0,1-2.341.565,3.81,3.81,0,0,1-3.148-1.29q-1.454-1.531-1.453-5.238t1.453-5.321a3.932,3.932,0,0,1,2.907-1.127,3.877,3.877,0,0,1,2.984,1.127,4.755,4.755,0,0,1,.81,1.213h5.652a11.147,11.147,0,0,0-2.1-4.111,9.67,9.67,0,0,0-7.507-2.9,9,9,0,0,0-7.186,2.984q-2.5,2.9-2.5,8.06,0,5.4,2.584,8.3a8.992,8.992,0,0,0,7.184,2.984,10.286,10.286,0,0,0,6.3-1.854,8.8,8.8,0,0,0,3.389-5.158h-4.035a2.239,2.239,0,0,0-1.451.4" transform="translate(-161.309 -6.29)" fill="#d1da47"/>
    <path id="Path_21447" data-name="Path 21447" d="M237.608.472h-2.9V4.993h5.648V3.266a2.708,2.708,0,0,0-.808-1.972,2.621,2.621,0,0,0-1.935-.823" transform="translate(-118.585 -0.238)" fill="#d1da47"/>
    <path id="Path_21448" data-name="Path 21448" d="M205.692.473h-2.743V9.706A7.637,7.637,0,0,0,200.367,7.2,7.846,7.846,0,0,0,190.6,9.544a13.171,13.171,0,0,0-2.343,8.184q0,5.181,2.343,8.178a6.764,6.764,0,0,0,3.225,2.228,12.666,12.666,0,0,0,4.117.69A13.545,13.545,0,0,0,205.13,26.8q3.308-2.03,3.309-7.778V3.226a2.685,2.685,0,0,0-.81-1.9,2.569,2.569,0,0,0-1.937-.852M201.82,22.426a3.938,3.938,0,0,1-3.392,1.7,4,4,0,0,1-3.468-1.7,8.464,8.464,0,0,1-1.213-4.942,7.455,7.455,0,0,1,1.213-4.539,3.837,3.837,0,0,1,3.308-1.7,4.21,4.21,0,0,1,3.47,1.62,7.836,7.836,0,0,1,1.21,4.618,8.959,8.959,0,0,1-1.129,4.942" transform="translate(-95.118 -0.239)" fill="#d1da47"/>
    <path id="Path_21449" data-name="Path 21449" d="M237.608,12.45h-2.9V34.875h5.648V15.313a2.823,2.823,0,0,0-.808-2.023,2.587,2.587,0,0,0-1.935-.84" transform="translate(-118.585 -6.29)" fill="#d1da47"/>
    <path id="Path_21450" data-name="Path 21450" d="M135.377,20.99a11.628,11.628,0,0,0-5.151,1.978q-2.019,1.483-2.019,4.944,0,3.706,2.226,5.311a8.623,8.623,0,0,0,5.191,1.608,32.7,32.7,0,0,0,3.419-.206,10.141,10.141,0,0,0,3.667-1.112,7.326,7.326,0,0,0,2.843-2.677,9.491,9.491,0,0,0,1.195-5.151V18.19a5.288,5.288,0,0,0-2.391-4.615q-2.305-1.567-6.92-1.565a9.524,9.524,0,0,0-6.346,1.892,6.338,6.338,0,0,0-2.306,4.2h5.52a2.232,2.232,0,0,1,1.319-1.233,5.958,5.958,0,0,1,2.06-.331,8.468,8.468,0,0,1,2.349.372,1.557,1.557,0,0,1,1.275,1.607q0,1.648-3.624,2.141Zm6.016,4.447a4.564,4.564,0,0,1-4.944,4.946,3.124,3.124,0,0,1-2.144-.659,2.676,2.676,0,0,1-.742-1.979,3.349,3.349,0,0,1,.577-1.812,4.836,4.836,0,0,1,2.142-1.071l1.9-.413a15.751,15.751,0,0,0,3.214-1.07Z" transform="translate(-64.777 -6.069)" fill="#f3f4f6"/>
    <path id="Path_21451" data-name="Path 21451" d="M116.3,12.01h-2.967V34.831h5.769v-19.9a2.884,2.884,0,0,0-.823-2.061,2.658,2.658,0,0,0-1.979-.856" transform="translate(-57.263 -6.068)" fill="#f3f4f6"/>
    <path id="Path_21452" data-name="Path 21452" d="M53.839,29.185a2.309,2.309,0,0,1-.491.378A4.5,4.5,0,0,1,51,30.05a3.9,3.9,0,0,1-3.215-1.319,5.67,5.67,0,0,1-1.234-3.791H60.8a1.408,1.408,0,0,0,.083-.577v-.906q0-5.44-2.638-8.487Q55.529,12,50.585,12.006a9.183,9.183,0,0,0-7.335,3.047q-2.554,2.967-2.555,8.24,0,5.521,2.638,8.487a9.173,9.173,0,0,0,7.334,3.05,10.489,10.489,0,0,0,6.427-1.9,8.987,8.987,0,0,0,3.46-5.274H56.434a2.455,2.455,0,0,0-1.524.412Zm-7.293-7.953a4.732,4.732,0,0,1,1.234-3.3,4.024,4.024,0,0,1,2.967-1.154A3.957,3.957,0,0,1,53.8,17.937a5.34,5.34,0,0,1,1.154,3.3Z" transform="translate(-20.561 -6.066)" fill="#f3f4f6"/>
    <path id="Path_21453" data-name="Path 21453" d="M96.772,12.01a15.7,15.7,0,0,0-4.327.6A10.016,10.016,0,0,0,88.779,14.5a9.286,9.286,0,0,0-2.6,3.647,14.645,14.645,0,0,0-.947,5.618V34.831h5.769V23.077A5.288,5.288,0,0,1,92.158,19.3,4.708,4.708,0,0,1,95.7,18.1H97.6V12.01h-.825Z" transform="translate(-43.066 -6.068)" fill="#f3f4f6"/>
    <path id="Path_21454" data-name="Path 21454" d="M7.167,20.986a11.633,11.633,0,0,0-5.15,1.978Q0,24.448,0,27.909q0,3.707,2.223,5.312A8.63,8.63,0,0,0,7.415,34.83a32.707,32.707,0,0,0,3.419-.206A10.123,10.123,0,0,0,14.5,33.511a7.314,7.314,0,0,0,2.843-2.678,9.479,9.479,0,0,0,1.195-5.152v-7.5a5.29,5.29,0,0,0-2.391-4.615Q13.841,12,9.229,12.006A9.51,9.51,0,0,0,2.884,13.9,6.341,6.341,0,0,0,.575,18.1H6.095a2.253,2.253,0,0,1,1.32-1.234,5.966,5.966,0,0,1,2.061-.331,8.444,8.444,0,0,1,2.347.372A1.56,1.56,0,0,1,13.1,18.515q0,1.648-3.625,2.141Zm6.016,4.448a4.9,4.9,0,0,1-1.319,3.626A4.891,4.891,0,0,1,8.24,30.38a3.132,3.132,0,0,1-2.145-.66,2.675,2.675,0,0,1-.741-1.979,3.353,3.353,0,0,1,.578-1.812A4.854,4.854,0,0,1,8.074,24.86l1.894-.413a15.668,15.668,0,0,0,3.214-1.071Z" transform="translate(0 -6.066)" fill="#f3f4f6"/>
    <path id="Path_21455" data-name="Path 21455" d="M173.885,0h-2.966V28.764h5.766v-26A2.621,2.621,0,0,0,175.863.8a2.747,2.747,0,0,0-1.978-.8" transform="translate(-86.357 0)" fill="#f3f4f6"/>
    <path id="Path_21456" data-name="Path 21456" d="M2.478,69.861H7.464l-.218,1.018H3.408L2.7,74.091H6.432L6.2,75.108H2.478l-.756,3.416H5.545l-.218,1.032H.341Z" transform="translate(-0.172 -35.297)" fill="#f3f4f6"/>
    <path id="Path_21457" data-name="Path 21457" d="M15.149,75.267h1.09l.465,5.785,3.038-5.785h1.163l-3.867,7.021H15.89Z" transform="translate(-7.654 -38.029)" fill="#f3f4f6"/>
    <path id="Path_21458" data-name="Path 21458" d="M29.816,74.914a2.324,2.324,0,0,1,2.4,2.616,6.5,6.5,0,0,1-.189,1.41H27.447a3.42,3.42,0,0,0-.058.654,1.673,1.673,0,0,0,1.773,1.817,2.432,2.432,0,0,0,1.657-.727l.407.683a3.086,3.086,0,0,1-2.166.916,2.526,2.526,0,0,1-2.719-2.762c0-1.86,1.265-4.608,3.474-4.608m1.439,2.573a1.522,1.522,0,0,0-1.526-1.7c-1.134,0-1.948,1.265-2.151,2.384h3.59a2.765,2.765,0,0,0,.087-.683" transform="translate(-13.309 -37.851)" fill="#f3f4f6"/>
    <path id="Path_21459" data-name="Path 21459" d="M41.059,75.118h1.032l-.233,1.032a2.581,2.581,0,0,1,2.253-1.177l-.247,1.061a2.684,2.684,0,0,0-.436-.044,2.289,2.289,0,0,0-1.788,1.163l-1.1,4.986H39.5Z" transform="translate(-19.96 -37.88)" fill="#f3f4f6"/>
    <path id="Path_21460" data-name="Path 21460" d="M46.987,84.192c.349,0,.567-.174.872-.683l.625-1.1-.727-7.137h1.09l.465,5.756,3.038-5.756h1.163l-4.695,8.5c-.567,1-1.1,1.366-1.875,1.366a2.644,2.644,0,0,1-.829-.145l.363-.916a1.054,1.054,0,0,0,.509.116" transform="translate(-23.3 -38.029)" fill="#f3f4f6"/>
    <path id="Path_21461" data-name="Path 21461" d="M70.477,74.914a2.292,2.292,0,0,1,2.05,1.018l-.7.668a1.46,1.46,0,0,0-1.322-.756c-1.57,0-2.457,2.108-2.457,3.649,0,1.265.7,1.86,1.628,1.86a1.792,1.792,0,0,0,1.352-.64l.436.742a2.585,2.585,0,0,1-1.919.829,2.473,2.473,0,0,1-2.573-2.777c0-2.122,1.381-4.593,3.5-4.593" transform="translate(-33.839 -37.851)" fill="#f3f4f6"/>
    <path id="Path_21462" data-name="Path 21462" d="M82.333,74.914a2.4,2.4,0,0,1,2.515,2.7c0,2.108-1.337,4.666-3.459,4.666a2.4,2.4,0,0,1-2.515-2.689c0-2.122,1.338-4.68,3.46-4.68m-.044.93c-1.41,0-2.34,2.253-2.34,3.736,0,1.192.566,1.773,1.482,1.773,1.425,0,2.341-2.238,2.341-3.721,0-1.192-.567-1.788-1.483-1.788" transform="translate(-39.851 -37.851)" fill="#f3f4f6"/>
    <path id="Path_21463" data-name="Path 21463" d="M97.212,77.11a3.627,3.627,0,0,0,.058-.422c0-.6-.407-.843-.959-.843a2.582,2.582,0,0,0-1.846,1.148L93.331,82.11H92.3l1.555-7.021h1.032l-.218.974a2.937,2.937,0,0,1,2.093-1.148c.974,0,1.613.509,1.613,1.41a3.725,3.725,0,0,1-.073.523L97.14,82.11H96.093Z" transform="translate(-46.634 -37.851)" fill="#f3f4f6"/>
    <path id="Path_21464" data-name="Path 21464" d="M107.343,75.267h1.09l.465,5.785,3.038-5.785H113.1l-3.867,7.021h-1.148Z" transform="translate(-54.235 -38.029)" fill="#f3f4f6"/>
    <path id="Path_21465" data-name="Path 21465" d="M122.01,74.914a2.324,2.324,0,0,1,2.4,2.616,6.5,6.5,0,0,1-.188,1.41H119.64a3.46,3.46,0,0,0-.058.654,1.673,1.673,0,0,0,1.774,1.817,2.431,2.431,0,0,0,1.657-.727l.407.683a3.086,3.086,0,0,1-2.165.916,2.525,2.525,0,0,1-2.718-2.762c0-1.86,1.265-4.608,3.474-4.608m1.439,2.573a1.521,1.521,0,0,0-1.526-1.7c-1.133,0-1.948,1.265-2.151,2.384h3.59a2.764,2.764,0,0,0,.087-.683" transform="translate(-59.891 -37.851)" fill="#f3f4f6"/>
    <path id="Path_21466" data-name="Path 21466" d="M133.254,75.118h1.032l-.233,1.032a2.581,2.581,0,0,1,2.253-1.177l-.247,1.061a2.677,2.677,0,0,0-.436-.044,2.286,2.286,0,0,0-1.787,1.163l-1.1,4.986H131.7Z" transform="translate(-66.541 -37.88)" fill="#f3f4f6"/>
    <path id="Path_21467" data-name="Path 21467" d="M140.329,80.481a2.152,2.152,0,0,0,1.817.959,1.3,1.3,0,0,0,1.381-1.235c0-.6-.581-.931-1.207-1.294-.756-.436-1.6-.9-1.6-1.89a2.159,2.159,0,0,1,2.355-2.108,2.72,2.72,0,0,1,2.18,1l-.611.669a1.9,1.9,0,0,0-1.613-.829,1.136,1.136,0,0,0-1.279,1.09c0,.523.552.843,1.163,1.192.77.451,1.657.945,1.657,1.977a2.305,2.305,0,0,1-2.471,2.267,2.8,2.8,0,0,1-2.413-1.1Z" transform="translate(-70.578 -37.851)" fill="#f3f4f6"/>
    <path id="Path_21468" data-name="Path 21468" d="M157.481,75.089h1.032l-1.555,7.021h-1.047l.218-.959a2.3,2.3,0,0,1-1.89,1.134c-1.25,0-2.064-.9-2.064-2.486,0-2.006,1.148-4.884,3.212-4.884a1.973,1.973,0,0,1,1.861,1.235Zm-2.834,6.265a2.178,2.178,0,0,0,1.7-1.177l.712-3.169a1.608,1.608,0,0,0-1.526-1.163c-1.41,0-2.253,2.34-2.253,3.808,0,1.1.523,1.7,1.366,1.7" transform="translate(-76.887 -37.851)" fill="#f3f4f6"/>
    <path id="Path_21469" data-name="Path 21469" d="M166.718,78.889l1.032-4.666h-.93l.2-.916h.945l.422-1.919h1.032L169,73.307h1.192l-.2.916H168.8l-1,4.477a2.573,2.573,0,0,0-.044.349c0,.349.2.523.567.523a.9.9,0,0,0,.567-.2l.131.814a1.46,1.46,0,0,1-.959.32c-.872,0-1.4-.363-1.4-1.148a2.017,2.017,0,0,1,.058-.465" transform="translate(-84.205 -36.069)" fill="#f3f4f6"/>
    <path id="Path_21470" data-name="Path 21470" d="M175,72.61h1.032l-1.555,7.021h-1.032Zm.989-2.6a.636.636,0,0,1,.654.625.814.814,0,0,1-.8.8.627.627,0,0,1-.654-.625.814.814,0,0,1,.8-.8" transform="translate(-87.634 -35.372)" fill="#f3f4f6"/>
    <path id="Path_21471" data-name="Path 21471" d="M183.457,74.914a2.4,2.4,0,0,1,2.515,2.7c0,2.108-1.337,4.666-3.459,4.666A2.4,2.4,0,0,1,180,79.594c0-2.122,1.337-4.68,3.459-4.68m-.044.93c-1.41,0-2.34,2.253-2.34,3.736,0,1.192.567,1.773,1.483,1.773,1.424,0,2.34-2.238,2.34-3.721,0-1.192-.567-1.788-1.483-1.788" transform="translate(-90.945 -37.851)" fill="#f3f4f6"/>
    <path id="Path_21472" data-name="Path 21472" d="M198.338,77.11a3.622,3.622,0,0,0,.058-.422c0-.6-.407-.843-.959-.843a2.582,2.582,0,0,0-1.846,1.148l-1.134,5.117h-1.032l1.555-7.021h1.032l-.218.974a2.936,2.936,0,0,1,2.093-1.148c.974,0,1.614.509,1.614,1.41a3.726,3.726,0,0,1-.073.523l-1.163,5.262h-1.046Z" transform="translate(-97.729 -37.851)" fill="#f3f4f6"/>
    <path id="Path_21473" data-name="Path 21473" d="M221.616,77.065a2.04,2.04,0,0,0,.058-.392.79.79,0,0,0-.872-.829,2.467,2.467,0,0,0-1.687,1.148L218,82.109H216.95l1.119-5.044a2.236,2.236,0,0,0,.058-.451c-.015-.465-.305-.77-.887-.77a2.439,2.439,0,0,0-1.671,1.148l-1.134,5.117H213.4l1.555-7.021h1.032l-.218.974a2.7,2.7,0,0,1,1.962-1.148,1.328,1.328,0,0,1,1.468,1.133.315.315,0,0,1-.015.117,2.779,2.779,0,0,1,2.093-1.25,1.37,1.37,0,0,1,1.5,1.4,3.343,3.343,0,0,1-.073.538l-1.163,5.262H220.5Z" transform="translate(-107.823 -37.851)" fill="#f3f4f6"/>
    <path id="Path_21474" data-name="Path 21474" d="M239.6,75.089h1.032l-1.555,7.021h-1.047l.218-.959a2.3,2.3,0,0,1-1.889,1.134c-1.25,0-2.064-.9-2.064-2.486,0-2.006,1.148-4.884,3.212-4.884a1.973,1.973,0,0,1,1.861,1.235Zm-2.834,6.265a2.178,2.178,0,0,0,1.7-1.177l.712-3.169a1.608,1.608,0,0,0-1.526-1.163c-1.41,0-2.253,2.34-2.253,3.808,0,1.1.523,1.7,1.366,1.7" transform="translate(-118.377 -37.851)" fill="#f3f4f6"/>
    <path id="Path_21475" data-name="Path 21475" d="M248.834,78.889l1.032-4.666h-.93l.2-.916h.945l.422-1.919h1.032l-.422,1.919h1.192l-.2.916h-1.192l-1,4.477a2.578,2.578,0,0,0-.044.349c0,.349.2.523.567.523a.9.9,0,0,0,.567-.2l.131.814a1.46,1.46,0,0,1-.959.32c-.872,0-1.4-.363-1.4-1.148a2.016,2.016,0,0,1,.058-.465" transform="translate(-125.695 -36.069)" fill="#f3f4f6"/>
    <path id="Path_21476" data-name="Path 21476" d="M256.561,78.889l1.032-4.666h-.93l.2-.916h.945l.422-1.919h1.032l-.421,1.919h1.192l-.2.916h-1.192l-1,4.477a2.573,2.573,0,0,0-.044.349c0,.349.2.523.567.523a.9.9,0,0,0,.567-.2l.131.814a1.46,1.46,0,0,1-.959.32c-.872,0-1.4-.363-1.4-1.148a2.019,2.019,0,0,1,.058-.465" transform="translate(-129.599 -36.069)" fill="#f3f4f6"/>
    <path id="Path_21477" data-name="Path 21477" d="M267.35,74.914a2.324,2.324,0,0,1,2.4,2.616,6.5,6.5,0,0,1-.189,1.41h-4.579a3.426,3.426,0,0,0-.058.654,1.673,1.673,0,0,0,1.773,1.817,2.432,2.432,0,0,0,1.657-.727l.407.683a3.087,3.087,0,0,1-2.165.916,2.526,2.526,0,0,1-2.719-2.762c0-1.86,1.265-4.608,3.474-4.608m1.439,2.573a1.522,1.522,0,0,0-1.526-1.7c-1.134,0-1.948,1.265-2.151,2.384h3.59a2.742,2.742,0,0,0,.088-.683" transform="translate(-133.324 -37.851)" fill="#f3f4f6"/>
    <path id="Path_21478" data-name="Path 21478" d="M278.594,75.118h1.032l-.233,1.032a2.58,2.58,0,0,1,2.253-1.177l-.247,1.061a2.675,2.675,0,0,0-.436-.044,2.289,2.289,0,0,0-1.788,1.163l-1.1,4.986h-1.032Z" transform="translate(-139.974 -37.88)" fill="#f3f4f6"/>
    <path id="Path_21479" data-name="Path 21479" d="M285.669,80.481a2.15,2.15,0,0,0,1.817.959,1.3,1.3,0,0,0,1.38-1.235c0-.6-.581-.931-1.206-1.294-.756-.436-1.6-.9-1.6-1.89a2.159,2.159,0,0,1,2.354-2.108,2.722,2.722,0,0,1,2.181,1l-.611.669a1.9,1.9,0,0,0-1.613-.829,1.136,1.136,0,0,0-1.279,1.09c0,.523.552.843,1.163,1.192.77.451,1.657.945,1.657,1.977a2.306,2.306,0,0,1-2.471,2.267,2.8,2.8,0,0,1-2.413-1.1Z" transform="translate(-144.012 -37.851)" fill="#f3f4f6"/>
  </g>
</svg>
