<svg xmlns="http://www.w3.org/2000/svg" xmlns:xlink="http://www.w3.org/1999/xlink" width="65.299" height="74.604" viewBox="0 0 65.299 74.604">
  <defs>
    <linearGradient id="linear-gradient" x1="0.313" y1="-0.11" x2="0.5" y2="1" gradientUnits="objectBoundingBox">
      <stop offset="0" stop-color="#d1da47"/>
      <stop offset="1" stop-color="#696d24"/>
    </linearGradient>
  </defs>
  <g id="question" transform="translate(-31.917 0.002)">
    <path id="Subtraction_2" data-name="Subtraction 2" d="M-15417.483,16412.906a2.176,2.176,0,0,1-1.9-1.1l-4.148-7.191a4.88,4.88,0,0,0-2.916-2.262,32.437,32.437,0,0,1-9.414-4.416,32.76,32.76,0,0,1-7.474-7.045,32.523,32.523,0,0,1-4.95-9.093,32.552,32.552,0,0,1-1.844-10.559,32.258,32.258,0,0,1,2.474-12.714,32.721,32.721,0,0,1,6.938-10.451,32.692,32.692,0,0,1,10.334-7.1,32.234,32.234,0,0,1,12.664-2.673h.235a32.433,32.433,0,0,1,12.71,2.566,32.539,32.539,0,0,1,10.379,7,32.558,32.558,0,0,1,7,10.379,32.442,32.442,0,0,1,2.565,12.707,32.6,32.6,0,0,1-1.778,10.654,32.519,32.519,0,0,1-4.937,9.181,32.693,32.693,0,0,1-7.5,7.113,32.459,32.459,0,0,1-9.469,4.453,4.883,4.883,0,0,0-2.912,2.262l-4.148,7.191A2.174,2.174,0,0,1-15417.483,16412.906Zm-.943-29.687a2.222,2.222,0,0,0-2.221,2.22v1.52a2.223,2.223,0,0,0,2.221,2.221h1.887a2.223,2.223,0,0,0,2.22-2.221v-1.52a2.222,2.222,0,0,0-2.22-2.22Zm.943-25.717a4.736,4.736,0,0,1,4.729,4.733,4.736,4.736,0,0,1-4.729,4.732,2.907,2.907,0,0,0-2.9,2.9v6.368a2.91,2.91,0,0,0,2.9,2.908,2.909,2.909,0,0,0,2.9-2.908v-3.653a.294.294,0,0,1,.206-.276,10.652,10.652,0,0,0,5.33-3.762,10.434,10.434,0,0,0,2.105-6.313,10.555,10.555,0,0,0-10.545-10.541,10.555,10.555,0,0,0-10.545,10.541,2.911,2.911,0,0,0,2.907,2.908,2.91,2.91,0,0,0,2.9-2.908A4.738,4.738,0,0,1-15417.483,16357.5Z" transform="translate(15482.051 -16338.305)" fill="url(#linear-gradient)"/>
  </g>
</svg>
