<svg xmlns="http://www.w3.org/2000/svg" width="21.279" height="14.629" viewBox="0 0 21.279 14.629">
  <g id="email_4_" data-name="email (4)" transform="translate(0 -80)">
    <g id="Group_232" data-name="Group 232" transform="translate(14.105 82.697)">
      <g id="Group_231" data-name="Group 231">
        <path id="Path_21433" data-name="Path 21433" d="M339.392,149.623l7.174,4.535V144.9Z" transform="translate(-339.392 -144.896)" fill="#f3f4f6"/>
      </g>
    </g>
    <g id="Group_234" data-name="Group 234" transform="translate(0 82.697)">
      <g id="Group_233" data-name="Group 233">
        <path id="Path_21434" data-name="Path 21434" d="M0,144.9v9.262l7.174-4.535Z" transform="translate(0 -144.896)" fill="#f3f4f6"/>
      </g>
    </g>
    <g id="Group_236" data-name="Group 236" transform="translate(0.04 80)">
      <g id="Group_235" data-name="Group 235">
        <path id="Path_21435" data-name="Path 21435" d="M20.869,80H2.25A1.313,1.313,0,0,0,.96,81.132l10.6,6.984,10.6-6.984A1.313,1.313,0,0,0,20.869,80Z" transform="translate(-0.96 -80)" fill="#f3f4f6"/>
      </g>
    </g>
    <g id="Group_238" data-name="Group 238" transform="translate(0.043 88.226)">
      <g id="Group_237" data-name="Group 237">
        <path id="Path_21436" data-name="Path 21436" d="M13.869,277.921l-1.882,1.24a.668.668,0,0,1-.731,0L9.373,277.92,1.024,283.2a1.311,1.311,0,0,0,1.287,1.122H20.931a1.311,1.311,0,0,0,1.287-1.122Z" transform="translate(-1.024 -277.92)" fill="#f3f4f6"/>
      </g>
    </g>
  </g>
</svg>
