<svg id="twitter_12_" data-name="twitter (12)" xmlns="http://www.w3.org/2000/svg" width="16.628" height="13.51" viewBox="0 0 16.628 13.51">
  <g id="Group_214" data-name="Group 214" transform="translate(0 0)">
    <path id="Path_21425" data-name="Path 21425" d="M16.628,49.6a7.107,7.107,0,0,1-1.964.538,3.39,3.39,0,0,0,1.5-1.884A6.812,6.812,0,0,1,14,49.079,3.409,3.409,0,0,0,8.1,51.41a3.51,3.51,0,0,0,.079.777,9.649,9.649,0,0,1-7.026-3.566,3.41,3.41,0,0,0,1.048,4.556,3.366,3.366,0,0,1-1.54-.42V52.8A3.424,3.424,0,0,0,3.4,56.144a3.4,3.4,0,0,1-.894.112,3.014,3.014,0,0,1-.645-.058,3.441,3.441,0,0,0,3.185,2.375A6.849,6.849,0,0,1,.816,60.027,6.385,6.385,0,0,1,0,59.98a9.6,9.6,0,0,0,5.229,1.53,9.635,9.635,0,0,0,9.7-9.7c0-.151-.005-.3-.012-.441A6.8,6.8,0,0,0,16.628,49.6Z" transform="translate(0 -48)" fill="#fff"/>
  </g>
</svg>
